<?xml version="1.0" encoding="UTF-8"?>
<svg enable-background="new 0 0 1662 1662" version="1.1" viewBox="0 0 1662 1662" xmlns="http://www.w3.org/2000/svg">
 <polygon points="831 824.29 826.25 826.25 824.29 831 825.98 826.92 830.06 825.23 834.14 826.92 835.83 831 834.14 835.08 830.06 836.77 825.98 835.08 824.29 831 826.25 835.75 831 837.71 835.75 835.75 837.71 831 835.75 826.25"/>
 <polygon points="829.74 825.54 833.6 827.14 835.2 831 833.82 827.68 830.5 826.31 827.19 827.68 825.81 831 827.19 834.32 830.5 835.69 833.82 834.32 835.2 831 833.6 834.86 829.74 836.46 825.88 834.86 824.29 831 825.88 827.14"/>
 <polygon points="831 820.17 823.34 823.34 820.17 831 822.9 824.41 829.48 821.69 836.07 824.41 838.8 831 836.07 837.59 829.48 840.31 822.9 837.59 820.17 831 823.34 838.66 831 841.83 838.66 838.66 841.83 831 838.66 823.34"/>
 <polygon points="828.97 822.2 835.19 824.78 837.77 831 835.55 825.65 830.2 823.43 824.85 825.65 822.63 831 824.85 836.35 830.2 838.57 835.55 836.35 837.77 831 835.19 837.22 828.97 839.8 822.75 837.22 820.17 831 822.75 824.78"/>
 <polygon points="831 813.53 818.65 818.65 813.53 831 817.93 820.38 828.55 815.98 839.18 820.38 843.58 831 839.18 841.62 828.55 846.02 817.93 841.62 813.53 831 818.65 843.35 831 848.47 843.35 843.35 848.47 831 843.35 818.65"/>
 <polygon points="827.72 816.81 837.76 820.96 841.92 831 838.34 822.37 829.71 818.79 821.08 822.37 817.51 831 821.08 839.63 829.71 843.21 838.34 839.63 841.92 831 837.76 841.04 827.72 845.19 817.69 841.04 813.53 831 817.69 820.96"/>
 <polygon points="831 802.83 811.08 811.08 802.83 831 809.92 813.87 827.06 806.77 844.19 813.87 851.28 831 844.19 848.13 827.06 855.23 809.92 848.13 802.83 831 811.08 850.92 831 859.17 850.92 850.92 859.17 831 850.92 811.08"/>
 <polygon points="825.72 808.11 841.9 814.81 848.61 831 842.84 817.08 828.92 811.31 815 817.08 809.24 831 815 844.92 828.92 850.69 842.84 844.92 848.61 831 841.9 847.19 825.72 853.89 809.53 847.19 802.83 831 809.53 814.81"/>
 <polygon points="831 785.56 798.87 798.87 785.56 831 797.01 803.37 824.64 791.92 852.27 803.37 863.72 831 852.27 858.63 824.64 870.08 797.01 858.63 785.56 831 798.87 863.13 831 876.44 863.13 863.13 876.44 831 863.13 798.87"/>
 <polygon points="822.48 794.08 848.59 804.89 859.4 831 850.1 808.55 827.65 799.25 805.2 808.55 795.9 831 805.2 853.45 827.65 862.75 850.1 853.45 859.4 831 848.59 857.11 822.48 867.92 796.37 857.11 785.56 831 796.37 804.89"/>
 <polygon points="831 757.71 779.18 779.18 757.71 831 776.17 786.43 820.74 767.97 865.31 786.43 883.77 831 865.31 875.57 820.74 894.03 776.17 875.57 757.71 831 779.18 882.82 831 904.29 882.82 882.82 904.29 831 882.82 779.18"/>
 <polygon points="817.26 771.45 859.37 788.89 876.81 831 861.81 794.79 825.59 779.79 789.38 794.79 774.38 831 789.38 867.21 825.59 882.21 861.81 867.21 876.81 831 859.37 873.11 817.26 890.55 775.15 873.11 757.71 831 775.15 788.89"/>
 <polygon points="831 712.79 747.41 747.41 712.79 831 742.57 759.11 814.45 729.34 886.34 759.11 916.11 831 886.34 902.89 814.45 932.66 742.57 902.89 712.79 831 747.41 914.59 831 949.21 914.59 914.59 949.21 831 914.59 747.41"/>
 <polygon points="808.84 734.95 876.75 763.09 904.88 831 880.69 772.59 822.28 748.4 763.88 772.59 739.68 831 763.88 889.41 822.28 913.6 880.69 889.41 904.88 831 876.75 898.91 808.84 927.05 740.92 898.91 712.79 831 740.92 763.09"/>
 <path d="m965.82 696.18l-134.82-55.844-134.82 55.844-7.7935 18.815c0.0139 0.011 0.0291 0.0201 0.0427 0.0314l115.88-47.998 115.94 48.026 48.026 115.94-48.025 115.94-115.94 48.026-115.92-48.016c-0.0046 0.0042-9e-3 0.0082-0.0137 0.0124l7.8091 18.853 134.82 55.844 134.82-55.844 55.844-134.82-55.844-134.82z"/>
 <polygon points="685.73 940.58 640.34 831"/>
 <path d="m640.34 831c15.662-36 29.662-73 45.356-109.5"/>
 <polygon points="722.73 925.2 683.71 831 722.73 736.8 816.94 697.77 911.14 736.79 911.14 736.79 904.79 721.46 795.25 676.09 685.71 721.46 640.34 831 685.71 940.54 795.25 985.91 904.79 940.54 911.14 925.2 816.94 964.23"/>
 <polygon points="596.69 1007.8 523.48 831"/>
 <path d="M596.6099,654.4492C577,702,558,749,537,797c-4,11-9,23-14,34C549,772,572,713,596.6099,654.4492"/>
 <path d="m1048.4 613.55l-217.45-90.07-217.45 90.07-12.586 30.386c0.0176 0.0078 0.0317 0.0192 0.0488 0.0275l186.93-77.431 187.01 77.461 77.461 187.01-77.461 187.01-187.01 77.461-186.89-77.411c-0.0273 0.0129-0.0566 0.0231-0.0847 0.035l12.575 30.358 217.45 90.071 217.45-90.071 90.07-217.45-90.07-217.45z"/>
 <polygon points="656.38 982.94 593.44 831 656.38 679.06 808.32 616.12 960.26 679.06 950.02 654.32 773.34 581.14 596.66 654.32 523.48 831 596.66 1007.7 773.34 1080.9 950.02 1007.7 960.26 982.94 808.32 1045.9"/>
 <polygon points="1181.7 480.28 831 335 480.27 480.28 459.9 529.45 459.9 529.45 459.94 529.38 761.56 404.44 1063.2 529.38 1188.1 831 1063.2 1132.6 761.56 1257.6 459.94 1132.6 459.89 1132.5 459.89 1132.5 480.27 1181.7 831 1327 1181.7 1181.7 1327 831"/>
 <polygon points="453.08 545.92 335 831"/>
 <polygon points="453.06 1116 335 831"/>
 <path d="m1039 1076.3l-244.57 101.3-245.07-101.51-101.51-245.07 101.51-245.07 245.07-101.51 244.84 101.42c0.05-0.0278 0.1021-0.0533 0.1533-0.0799l-16.453-39.722-284.96-118.04-284.96 118.04-118.04 284.96 118.04 284.96 284.96 118.04 284.96-118.04 16.348-39.468c-0.1113-0.0699-0.22-0.1426-0.3252-0.2187z"/>
 <path d="m1396.7 265.31l-565.69-234.31-565.69 234.31-32.777 79.132c0.0164 0.0108 0.0327 0.022 0.0488 0.033l486.41-201.48 486.49 201.51 201.51 486.49-201.51 486.49-486.49 201.51-486.49-201.51 32.804 79.196 565.69 234.31 565.69-234.31 234.31-565.69-234.31-565.69z"/>
 <path d="m1167.2 1226.3l-395.22 163.71-395.27-163.73-163.73-395.27 163.73-395.27 395.27-163.73 395.27 163.73-26.653-64.347-459.62-190.38-459.62 190.38-190.38 459.62 190.38 459.62 459.62 190.38 459.62-190.38 26.635-64.303c-0.0106-0.0079-0.0225-0.0144-0.033-0.0223z"/>
</svg>
